<mxfile host="app.diagrams.net" modified="2023-05-27T18:41:09.104Z" agent="Mozilla/5.0 (Macintosh; Intel Mac OS X 10_15_7) AppleWebKit/537.36 (KHTML, like Gecko) Chrome/113.0.0.0 Safari/537.36" etag="qqAN67I9EZQPgSzD8VqH" version="21.3.2" type="device">
  <diagram name="Page-1" id="yM0zl6eg55ZulKi63WZE">
    <mxGraphModel dx="1026" dy="574" grid="1" gridSize="10" guides="1" tooltips="1" connect="1" arrows="1" fold="1" page="1" pageScale="1" pageWidth="827" pageHeight="1169" math="0" shadow="0">
      <root>
        <mxCell id="0" />
        <mxCell id="1" parent="0" />
        <mxCell id="hGcInjtQEl5wJTVg_khv-1" value="Effective&lt;br&gt;Config Rules&amp;nbsp;" style="rounded=0;whiteSpace=wrap;html=1;fillColor=#BCFF82;" vertex="1" parent="1">
          <mxGeometry x="340" y="270" width="120" height="60" as="geometry" />
        </mxCell>
        <mxCell id="hGcInjtQEl5wJTVg_khv-5" value="" style="edgeStyle=orthogonalEdgeStyle;rounded=0;orthogonalLoop=1;jettySize=auto;html=1;" edge="1" parent="1" source="hGcInjtQEl5wJTVg_khv-4" target="hGcInjtQEl5wJTVg_khv-1">
          <mxGeometry relative="1" as="geometry" />
        </mxCell>
        <mxCell id="hGcInjtQEl5wJTVg_khv-4" value="Organization&lt;br&gt;conformance packs" style="rounded=0;whiteSpace=wrap;html=1;" vertex="1" parent="1">
          <mxGeometry x="180" y="270" width="120" height="60" as="geometry" />
        </mxCell>
        <mxCell id="hGcInjtQEl5wJTVg_khv-8" value="" style="edgeStyle=orthogonalEdgeStyle;rounded=0;orthogonalLoop=1;jettySize=auto;html=1;" edge="1" parent="1" source="hGcInjtQEl5wJTVg_khv-6" target="hGcInjtQEl5wJTVg_khv-1">
          <mxGeometry relative="1" as="geometry" />
        </mxCell>
        <mxCell id="hGcInjtQEl5wJTVg_khv-6" value="Conformance packs" style="rounded=0;whiteSpace=wrap;html=1;" vertex="1" parent="1">
          <mxGeometry x="340" y="180" width="120" height="60" as="geometry" />
        </mxCell>
        <mxCell id="hGcInjtQEl5wJTVg_khv-9" value="" style="edgeStyle=orthogonalEdgeStyle;rounded=0;orthogonalLoop=1;jettySize=auto;html=1;" edge="1" parent="1" source="hGcInjtQEl5wJTVg_khv-7" target="hGcInjtQEl5wJTVg_khv-1">
          <mxGeometry relative="1" as="geometry" />
        </mxCell>
        <mxCell id="hGcInjtQEl5wJTVg_khv-7" value="Rules in the AWS&lt;br&gt;account" style="rounded=0;whiteSpace=wrap;html=1;" vertex="1" parent="1">
          <mxGeometry x="500" y="270" width="120" height="60" as="geometry" />
        </mxCell>
        <mxCell id="hGcInjtQEl5wJTVg_khv-11" value="" style="edgeStyle=orthogonalEdgeStyle;rounded=0;orthogonalLoop=1;jettySize=auto;html=1;" edge="1" parent="1" source="hGcInjtQEl5wJTVg_khv-10" target="hGcInjtQEl5wJTVg_khv-1">
          <mxGeometry relative="1" as="geometry" />
        </mxCell>
        <mxCell id="hGcInjtQEl5wJTVg_khv-10" value="Custom rules" style="rounded=0;whiteSpace=wrap;html=1;" vertex="1" parent="1">
          <mxGeometry x="340" y="360" width="120" height="60" as="geometry" />
        </mxCell>
      </root>
    </mxGraphModel>
  </diagram>
</mxfile>
